<svg width="59" height="61" viewBox="0 0 59 61" fill="none" xmlns="http://www.w3.org/2000/svg">
<path d="M38.3283 19.3994C32.3959 10.6717 24.4726 6.03298 20.3233 8.87518C19.8664 9.19694 19.4693 9.59623 19.1502 10.055C19.1502 10.0885 9.54436 29.528 9.54436 29.528L4.18173 33.1612C3.35849 33.7201 2.65341 34.4356 2.10679 35.267C1.56016 36.0984 1.18269 37.0294 0.995939 38.0067C0.809191 38.984 0.816822 39.9885 1.0184 40.9629C1.21997 41.9373 1.61154 42.8624 2.17074 43.6854L2.41206 44.0407C3.54237 45.6872 5.27625 46.8217 7.23762 47.1982C9.19899 47.5747 11.2297 47.1627 12.8893 46.0517L21.503 58.741C22.77 60.3029 25.2033 61.858 28.2063 60.028C28.7384 59.6831 29.1922 59.2304 29.5385 58.6993C29.8849 58.1682 30.1161 57.5705 30.2173 56.9445C30.3387 56.3219 30.3354 55.6815 30.2076 55.0601C30.0799 54.4388 29.8303 53.849 29.4733 53.3247L21.8851 42.1302C21.8851 42.1302 39.8232 40.7024 39.8902 40.6756C40.4503 40.5584 40.9813 40.3305 41.4521 40.0053C43.5837 38.5574 44.3479 35.5208 43.6105 31.4519C42.9469 27.7047 41.0633 23.4616 38.3283 19.3994ZM4.36272 42.7201L4.1214 42.3648C3.73558 41.7969 3.46557 41.1583 3.32683 40.4859C3.18809 39.8134 3.18334 39.1201 3.31285 38.4458C3.44236 37.7715 3.70358 37.1294 4.08157 36.5561C4.45957 35.9829 4.9469 35.4898 5.51568 35.1052L10.1477 31.9546L16.2611 40.9572L11.6291 44.1077C11.061 44.494 10.4223 44.7646 9.74953 44.9039C9.07678 45.0433 8.38317 45.0487 7.70834 44.9198C7.03351 44.7909 6.39069 44.5303 5.81663 44.1529C5.24256 43.7755 4.74851 43.2886 4.36272 42.7201ZM27.5427 54.6453C27.9091 55.1904 28.0443 55.8586 27.9186 56.5033C27.7929 57.148 27.4167 57.7165 26.8724 58.0841C26.3262 58.4508 25.657 58.5861 25.0112 58.4605C24.3654 58.3349 23.7958 57.9585 23.4269 57.4138L14.84 44.7646L18.2922 42.4185L19.2038 42.3447L27.5427 54.6453ZM18.4799 40.0455L11.8168 30.2319L18.1715 17.2744C18.7882 20.9143 20.5914 25.2379 23.4738 29.4811C26.3562 33.7243 29.7079 36.9955 32.8584 38.9126L18.4799 40.0455ZM38.2546 38.4836C35.0504 38.2758 29.8352 34.6628 25.4178 28.1539C21.0003 21.645 19.5658 15.4846 20.5512 12.4212C20.7291 11.8462 21.0842 11.3421 21.5658 10.981C22.0473 10.6198 22.6307 10.4201 23.2325 10.4102C26.4099 10.4102 31.8194 14.0434 36.3643 20.74C38.9249 24.5073 40.7884 28.4488 41.2979 31.8943C42.2967 38.4836 38.2546 38.4836 38.2546 38.4836Z" fill="#46C4FF"/>
<path d="M29.9493 19.6474C29.1282 19.4861 28.2832 19.4902 27.4637 19.6594C26.6442 19.8286 25.8667 20.1595 25.1766 20.6328C25.0494 20.7208 24.9408 20.833 24.8569 20.963C24.7731 21.093 24.7157 21.2383 24.688 21.3905C24.6603 21.5427 24.6628 21.6988 24.6955 21.85C24.7281 22.0012 24.7902 22.1445 24.8783 22.2717C24.9663 22.3989 25.0785 22.5075 25.2085 22.5914C25.3385 22.6752 25.4838 22.7326 25.636 22.7603C25.7882 22.788 25.9443 22.7855 26.0955 22.7528C26.2467 22.7202 26.39 22.6581 26.5172 22.57C26.9543 22.2734 27.4455 22.0657 27.9628 21.9589C28.4801 21.8521 29.0134 21.8482 29.5323 21.9475C30.0511 22.0467 30.5453 22.2472 30.9866 22.5375C31.4279 22.8278 31.8078 23.2021 32.1044 23.6392C32.4011 24.0763 32.6088 24.5675 32.7156 25.0848C32.8224 25.6021 32.8263 26.1354 32.727 26.6542C32.6277 27.1731 32.4272 27.6672 32.1369 28.1086C31.8467 28.5499 31.4723 28.9297 31.0353 29.2264C30.8292 29.3687 30.674 29.5732 30.5926 29.8101C30.5111 30.0469 30.5076 30.3036 30.5825 30.5426C30.6574 30.7816 30.8068 30.9903 31.0089 31.1382C31.211 31.2862 31.4551 31.3655 31.7056 31.3647C31.9445 31.3692 32.1789 31.2989 32.3759 31.1637C33.4185 30.4574 34.2281 29.4575 34.702 28.2908C35.1759 27.124 35.2928 25.8428 35.038 24.6096C34.7831 23.3763 34.168 22.2464 33.2705 21.3631C32.3729 20.4797 31.2334 19.8826 29.9962 19.6474H29.9493Z" fill="white"/>
<path d="M39.7763 11.2415H39.8902C40.1804 11.2414 40.4602 11.1337 40.6756 10.9393C40.891 10.745 41.0267 10.4777 41.0566 10.1891L41.9615 1.39434C41.9821 1.23882 41.9713 1.08076 41.9298 0.929493C41.8882 0.778229 41.8167 0.636838 41.7195 0.513687C41.6224 0.390536 41.5015 0.288126 41.364 0.212515C41.2266 0.136904 41.0754 0.0896297 40.9193 0.0734878C40.7633 0.0573458 40.6056 0.0726645 40.4556 0.118538C40.3056 0.164411 40.1663 0.239906 40.0459 0.340558C39.9256 0.441209 39.8267 0.564972 39.7551 0.704524C39.6834 0.844075 39.6405 0.996581 39.6288 1.15302L38.7305 9.95445C38.6987 10.2638 38.7909 10.5731 38.987 10.8144C39.1831 11.0557 39.467 11.2094 39.7763 11.2415Z" fill="white"/>
<path d="M54.9392 9.43153C54.767 9.1719 54.499 8.99094 54.1939 8.92814C53.8887 8.86535 53.5711 8.92582 53.3103 9.09637L45.139 14.459C44.9268 14.5991 44.7659 14.8044 44.6805 15.0438C44.5951 15.2833 44.5898 15.5441 44.6654 15.7868C44.741 16.0296 44.8935 16.2412 45.0998 16.3898C45.3061 16.5384 45.5551 16.616 45.8093 16.6108C46.0465 16.6162 46.2798 16.5509 46.4797 16.4231L54.651 11.0604C54.9045 10.8821 55.0771 10.6106 55.1311 10.3054C55.1851 10.0002 55.1161 9.68605 54.9392 9.43153Z" fill="white"/>
<path d="M57.4394 23.7498L47.9342 22.0405C47.6275 21.9854 47.3115 22.0544 47.0557 22.2322C46.7998 22.4101 46.6252 22.6823 46.57 22.989C46.5149 23.2957 46.5839 23.6117 46.7618 23.8675C46.9397 24.1233 47.2119 24.298 47.5186 24.3531L57.0171 26.0625H57.2249C57.5238 26.0712 57.8148 25.9655 58.0383 25.7669C58.2619 25.5683 58.4011 25.2918 58.4277 24.994C58.4542 24.6961 58.366 24.3994 58.1811 24.1644C57.9961 23.9295 57.7285 23.774 57.4327 23.7297L57.4394 23.7498Z" fill="white"/>
</svg>
