<svg width="48" height="48" viewBox="0 0 48 48" fill="none" xmlns="http://www.w3.org/2000/svg">
<path d="M41.2223 14.5801H28.6568V5.61686C28.6568 4.15511 28.0883 2.78711 27.0601 1.76936C26.0303 0.739607 24.6638 0.172607 23.2118 0.172607H5.93182C2.92957 0.172607 0.486816 2.61536 0.486816 5.61761V17.1376C0.486816 20.1399 2.92957 22.5826 5.93182 22.5826H6.24682V25.7776C6.24682 26.8291 6.87457 27.7629 7.84507 28.1559C8.15782 28.2819 8.48257 28.3434 8.80432 28.3434C9.47632 28.3434 10.1311 28.0771 10.6103 27.5799L14.2688 23.9416V34.6464C14.2688 38.1151 17.0911 40.9374 20.5598 40.9374H29.7031L35.7653 46.9666C36.3106 47.5291 37.0418 47.8284 37.7896 47.8284C38.1466 47.8284 38.5066 47.7601 38.8516 47.6206C39.9293 47.1849 40.6246 46.1469 40.6246 44.9784V40.9374H41.2216C44.6903 40.9374 47.5126 38.1151 47.5126 34.6464V20.8711C47.5133 17.4024 44.6911 14.5801 41.2223 14.5801V14.5801ZM14.2741 20.7639L9.00832 25.9996C8.91682 26.0949 8.80957 26.1196 8.68882 26.0694C8.60107 26.0341 8.49682 25.9546 8.49682 25.7769V21.4569C8.49682 20.8351 7.99357 20.3319 7.37182 20.3319H5.93182C4.17007 20.3319 2.73682 18.8986 2.73682 17.1369V5.61686C2.73682 3.85511 4.17007 2.42186 5.93182 2.42186H23.2118C24.0623 2.42186 24.8641 2.75486 25.4731 3.36386C26.0753 3.96011 26.4068 4.76036 26.4068 5.61686V14.5801H20.5598C18.8828 14.5801 17.3041 15.2356 16.1138 16.4251C14.9498 17.5891 14.3018 19.1266 14.2741 20.7639V20.7639ZM45.2633 34.6456C45.2633 36.8739 43.4506 38.6866 41.2223 38.6866H39.5003C38.8793 38.6866 38.3753 39.1906 38.3753 39.8116V44.9776C38.3753 45.3459 38.1181 45.4906 38.0078 45.5349C37.9006 45.5776 37.6246 45.6511 37.3673 45.3856L30.9616 39.0144C30.7508 38.8051 30.4658 38.6866 30.1681 38.6866H20.5598C18.3316 38.6866 16.5188 36.8739 16.5188 34.6456V20.8711C16.5188 19.7941 16.9403 18.7809 17.7046 18.0166C18.4696 17.2516 19.4836 16.8301 20.5598 16.8301H41.2223C43.4506 16.8301 45.2633 18.6429 45.2633 20.8711V34.6456Z" fill="#2F73F2"/>
<path d="M23.9266 26.1167C23.0116 26.1167 22.2668 26.8622 22.2668 27.7765C22.2668 28.6907 23.0123 29.4362 23.9266 29.4362C24.8423 29.4362 25.5878 28.6907 25.5878 27.7765C25.5878 26.8622 24.8423 26.1167 23.9266 26.1167V26.1167Z" fill="#2F73F2"/>
<path d="M30.8902 26.1167C29.9752 26.1167 29.2305 26.8622 29.2305 27.7765C29.2305 28.6907 29.976 29.4362 30.8902 29.4362C31.806 29.4362 32.5515 28.6907 32.5515 27.7765C32.5515 26.8622 31.8067 26.1167 30.8902 26.1167Z" fill="#2F73F2"/>
<path d="M37.8548 26.1167C36.9398 26.1167 36.1951 26.8622 36.1951 27.7765C36.1951 28.6907 36.9406 29.4362 37.8548 29.4362C38.7706 29.4362 39.5161 28.6907 39.5161 27.7765C39.5161 26.8622 38.7706 26.1167 37.8548 26.1167Z" fill="#2F73F2"/>
</svg>
