<svg width="40" height="50" viewBox="0 0 40 50" fill="none" xmlns="http://www.w3.org/2000/svg">
<path fill-rule="evenodd" clip-rule="evenodd" d="M19.3817 0.677328C19.76 0.440891 20.2402 0.440891 20.6184 0.677328L25.5868 3.7826C28.3184 5.48985 31.3893 6.58124 34.5858 6.98078L38.8114 7.509C39.3952 7.58199 39.8334 8.07829 39.8334 8.66666V23.7342C39.8334 32.1815 35.4818 40.0332 28.3184 44.5102L20.6184 49.3227C20.2402 49.559 19.76 49.559 19.3817 49.3227L11.6818 44.5102C4.51844 40.0332 0.166748 32.1815 0.166748 23.7342V8.66666C0.166748 8.07829 0.604878 7.58199 1.1887 7.509L5.41446 6.98078C8.61085 6.58124 11.6817 5.48985 14.4133 3.7826L19.3817 0.677328ZM20.0001 3.04244L15.65 5.76124C12.6309 7.64821 9.23672 8.8545 5.70389 9.2961L2.50008 9.69657V23.7342C2.50008 31.377 6.43732 38.4808 12.9184 42.5315L20.0001 46.9576L27.0817 42.5315C33.5628 38.4808 37.5001 31.377 37.5001 23.7342V9.69657L34.2962 9.2961C30.7635 8.8545 27.3692 7.64821 24.3501 5.76124L20.0001 3.04244Z" fill="#2F73F2"/>
<path fill-rule="evenodd" clip-rule="evenodd" d="M28.9917 18.825L19.6584 28.1584C19.2027 28.6139 18.464 28.6139 18.0085 28.1584L13.3418 23.4917L14.9917 21.8418L18.8333 25.6834L27.3418 17.175L28.9917 18.825Z" fill="#2F73F2"/>
</svg>
