<svg width="140" height="44" viewBox="0 0 140 44" fill="none" xmlns="http://www.w3.org/2000/svg">
<path d="M13.697 13.7644C10.246 8.36875 22.9146 11.4244 27.864 13.7644L34.6751 3.11991C30.9517 1.08585 21.7159 -1.96371 14.5597 2.11054C7.40357 6.18478 11.0028 11.5774 13.697 13.7644Z" fill="#46C4FF"/>
<path d="M9.06548 10.6903C4.997 7.31344 7.91518 2.15641 9.88284 0C5.47837 0.688222 -0.469977 6.561 0.0295008 13.8561C0.528978 21.1512 7.7487 25.4181 11.9261 26.9781C16.1036 28.5381 20.6443 29.5016 25.5483 33.5391C29.4714 36.7691 26.7894 41.8589 24.958 44C31.0879 42.3483 34.1302 36.3837 34.4935 33.5391C34.8567 30.6945 35.0837 25.0511 28.1819 20.0959C21.28 15.1408 14.1511 14.9114 9.06548 10.6903Z" fill="#2F73F2"/>
<path d="M124.048 31.5651V17.3321H127.257L127.541 19.7426C127.976 18.9008 128.601 18.2313 129.415 17.7339C130.248 17.2365 131.223 16.9878 132.34 16.9878C134.082 16.9878 135.436 17.5426 136.402 18.6521C137.367 19.7617 137.85 21.3878 137.85 23.5303V31.5651H134.215V23.8747C134.215 22.6504 133.969 21.713 133.476 21.0625C132.984 20.4121 132.217 20.0869 131.176 20.0869C130.154 20.0869 129.311 20.4504 128.649 21.1773C128.005 21.9043 127.683 22.9182 127.683 24.219V31.5651H124.048Z" fill="#fff"/>
<path d="M113.072 31.5651V17.3321H116.31L116.651 20.0008C117.162 19.0826 117.853 18.3556 118.724 17.82C119.613 17.2652 120.655 16.9878 121.848 16.9878V20.8617H120.825C120.03 20.8617 119.32 20.986 118.695 21.2347C118.07 21.4834 117.578 21.9138 117.219 22.526C116.878 23.1382 116.707 23.9895 116.707 25.0799V31.5651H113.072Z" fill="#fff"/>
<path d="M101.361 31.9096C99.5999 31.9096 98.2367 31.3548 97.2711 30.2452C96.3245 29.1357 95.8512 27.5096 95.8512 25.367V17.3323H99.4579V25.0226C99.4579 26.247 99.704 27.1844 100.196 27.8348C100.688 28.4852 101.465 28.8104 102.525 28.8104C103.528 28.8104 104.352 28.447 104.996 27.72C105.658 26.9931 105.99 25.9792 105.99 24.6783V17.3323H109.625V31.5652H106.416L106.132 29.1548C105.696 29.9965 105.062 30.6661 104.229 31.1635C103.415 31.6609 102.459 31.9096 101.361 31.9096Z" fill="#fff"/>
<path d="M90.6855 31.5653C89.2087 31.5653 88.0255 31.2018 87.1356 30.4749C86.2458 29.7479 85.8009 28.4566 85.8009 26.601V20.4028H83.387V17.3324H85.8009L86.2269 13.5159H89.4359V17.3324H93.2414V20.4028H89.4359V26.6297C89.4359 27.3184 89.5779 27.7966 89.8619 28.0645C90.1648 28.3131 90.676 28.4375 91.3955 28.4375H93.1562V31.5653H90.6855Z" fill="#fff"/>
<path d="M73.3532 31.9094C72.1416 31.9094 71.1476 31.7181 70.3714 31.3355C69.5951 30.9338 69.0177 30.4077 68.639 29.7573C68.2604 29.1068 68.071 28.3894 68.071 27.6051C68.071 26.2851 68.5822 25.2138 69.6046 24.3912C70.6269 23.5686 72.1605 23.1573 74.2052 23.1573H77.7835V22.813C77.7835 21.8373 77.509 21.1199 76.9599 20.6608C76.4109 20.2017 75.7293 19.9721 74.9152 19.9721C74.1768 19.9721 73.5331 20.1539 72.9841 20.5173C72.435 20.8617 72.0942 21.3782 71.9617 22.0669H68.4118C68.5065 21.0338 68.8473 20.1347 69.4342 19.3695C70.04 18.6043 70.8163 18.0208 71.7629 17.6191C72.7095 17.1982 73.7698 16.9878 74.9436 16.9878C76.9504 16.9878 78.5313 17.4947 79.6862 18.5087C80.8411 19.5226 81.4185 20.9573 81.4185 22.813V31.5651H78.3231L77.9823 29.2694C77.5658 30.0346 76.9788 30.6659 76.2215 31.1633C75.4832 31.6607 74.5271 31.9094 73.3532 31.9094ZM74.1768 29.0399C75.2181 29.0399 76.0227 28.6955 76.5907 28.0068C77.1776 27.3181 77.5468 26.4668 77.6983 25.4529H74.6028C73.6372 25.4529 72.9462 25.6347 72.5297 25.9982C72.1132 26.3425 71.9049 26.7729 71.9049 27.2894C71.9049 27.8442 72.1132 28.2747 72.5297 28.5807C72.9462 28.8868 73.4952 29.0399 74.1768 29.0399Z" fill="#fff"/>
<path d="M58.7085 31.9095C57.2507 31.9095 55.9633 31.6608 54.8462 31.1634C53.7292 30.6469 52.8489 29.92 52.2051 28.9826C51.5614 28.0261 51.2301 26.8687 51.2112 25.5104H55.045C55.0829 26.4478 55.4142 27.2417 56.039 27.8922C56.6827 28.5235 57.5631 28.8391 58.6801 28.8391C59.6457 28.8391 60.4124 28.6095 60.9804 28.1504C61.5484 27.6722 61.8324 27.0409 61.8324 26.2565C61.8324 25.4339 61.5768 24.7931 61.0656 24.3339C60.5734 23.8748 59.9107 23.5018 59.0777 23.2148C58.2446 22.9279 57.3548 22.6218 56.4082 22.2966C54.8746 21.7609 53.7008 21.0722 52.8867 20.2305C52.0915 19.3888 51.694 18.2696 51.694 16.8731C51.675 15.687 51.9496 14.6731 52.5175 13.8314C53.1044 12.9705 53.8996 12.3105 54.903 11.8514C55.9065 11.3732 57.0614 11.134 58.3677 11.134C59.693 11.134 60.8574 11.3732 61.8608 11.8514C62.8831 12.3297 63.6783 12.9992 64.2463 13.8601C64.8332 14.721 65.1456 15.7444 65.1835 16.9305H61.2928C61.2739 16.2227 60.9993 15.601 60.4692 15.0653C59.9581 14.5105 59.2386 14.2331 58.3109 14.2331C57.5157 14.214 56.8436 14.4149 56.2946 14.8357C55.7645 15.2375 55.4994 15.8305 55.4994 16.6149C55.4994 17.2844 55.7077 17.8201 56.1242 18.2218C56.5407 18.6044 57.1087 18.9296 57.8281 19.1974C58.5476 19.4653 59.3711 19.7522 60.2988 20.0583C61.2833 20.4027 62.1826 20.8044 62.9967 21.2635C63.8108 21.7226 64.464 22.3348 64.9563 23.1C65.4485 23.8461 65.6946 24.8122 65.6946 25.9983C65.6946 27.0504 65.4296 28.0261 64.8995 28.9252C64.3694 29.8243 63.5836 30.5513 62.5424 31.1061C61.5011 31.6417 60.2231 31.9095 58.7085 31.9095Z" fill="#fff"/>
</svg>
