<svg width="51" height="49" viewBox="0 0 51 49" fill="none" xmlns="http://www.w3.org/2000/svg">
<path d="M47.9495 19.1251C47.0527 18.1988 46.6397 16.9362 46.8226 15.6559L46.9878 14.4877C47.4834 10.989 45.147 7.7676 41.666 7.1599L40.5037 6.9534C39.2352 6.7292 38.1555 5.9504 37.5537 4.8117L36.9991 3.7733C35.3412 0.652201 31.5593 -0.580899 28.3851 0.976701L27.3231 1.49C26.1667 2.0564 24.8333 2.0564 23.6769 1.49L22.6208 0.970801C19.4466 -0.580899 15.6647 0.646301 14.0068 3.7674L13.4522 4.8058C12.8445 5.9445 11.7707 6.7292 10.5022 6.9475L9.33994 7.154C5.85894 7.7617 3.52254 10.9831 4.01814 14.4818L4.18334 15.65C4.36624 16.9303 3.95324 18.1929 3.05644 19.1192L2.23634 19.9629C-0.223962 22.4999 -0.223962 26.4824 2.23634 29.0194L3.05644 29.869C3.95324 30.7953 4.36624 32.0579 4.18334 33.3382L4.01814 34.5064C3.52254 38.0051 5.85894 41.2265 9.33994 41.8342L10.5022 42.0407C11.7707 42.2649 12.8504 43.0437 13.4522 44.1824L14.0068 45.2208C15.1809 47.4274 17.4111 48.69 19.7475 48.69C20.7092 48.69 21.6945 48.4717 22.6208 48.0174L23.6769 47.51C24.8333 46.9436 26.1667 46.9436 27.3231 47.51L28.3792 48.0292C31.5534 49.5809 35.3353 48.3537 36.9932 45.2326L37.5478 44.1942C38.1555 43.0555 39.2293 42.2708 40.4978 42.0525L41.6601 41.846C45.1411 41.2383 47.4775 38.0169 46.9819 34.5182L46.8167 33.35C46.6338 32.0697 47.0468 30.8071 47.9436 29.8808L48.7637 29.0371C51.224 26.5001 51.224 22.5176 48.7637 19.9806L47.9495 19.1251ZM47.0704 27.391L46.2503 28.2347C44.8461 29.6861 44.1971 31.6744 44.4803 33.6745L44.6455 34.8427C44.9641 37.0729 43.4714 39.1261 41.253 39.5155L40.0907 39.722C38.0965 40.0701 36.4091 41.2973 35.4651 43.085L34.9105 44.1234C33.8544 46.1117 31.4413 46.9023 29.4176 45.9111L28.3615 45.3919C26.5443 44.501 24.4557 44.501 22.6385 45.3919L21.5824 45.9111C19.5587 46.9023 17.1456 46.1176 16.0895 44.1234L15.5349 43.085C14.585 41.2973 12.8976 40.0701 10.9093 39.722L9.74704 39.5155C7.52864 39.1261 6.03594 37.0729 6.35454 34.8427L6.51974 33.6745C6.80294 31.6685 6.15984 29.6861 4.74974 28.2347L3.92964 27.3851C2.36024 25.7626 2.36024 23.2315 3.92964 21.609L4.74974 20.7653C6.15394 19.3139 6.80294 17.3256 6.51974 15.3255L6.35454 14.1573C6.03594 11.9271 7.52864 9.8739 9.74704 9.4845L10.9093 9.278C12.9035 8.9299 14.5909 7.7027 15.5349 5.915L16.0895 4.8766C16.8388 3.4665 18.2607 2.6641 19.7475 2.6641C20.3611 2.6641 20.9865 2.7998 21.5824 3.0889L22.6385 3.6081C24.4557 4.499 26.5443 4.499 28.3615 3.6081L29.4176 3.0889C31.4413 2.0977 33.8544 2.8824 34.9105 4.8766L35.4651 5.915C36.415 7.7027 38.1024 8.9299 40.0907 9.278L41.253 9.4845C43.4714 9.8739 44.9641 11.9271 44.6455 14.1573L44.4803 15.3255C44.1971 17.3315 44.8402 19.3139 46.2503 20.7653L47.0704 21.6149C48.6398 23.2315 48.6398 25.7685 47.0704 27.391Z" fill="#2F73F2"/>
<path d="M34.887 15.1132C34.4268 14.653 33.6775 14.653 33.2173 15.1132L16.1132 32.2173C15.653 32.6775 15.653 33.4268 16.1132 33.887C16.3433 34.1171 16.6442 34.2351 16.9451 34.2351C17.246 34.2351 17.5469 34.1171 17.777 33.887L34.8811 16.7829C35.3472 16.3227 35.3472 15.5734 34.887 15.1132Z" fill="#2F73F2"/>
<path d="M20.7032 21.3788C21.9894 21.3788 23.2697 20.8891 24.2491 19.9097C26.202 17.9568 26.202 14.7708 24.2491 12.8179C22.2962 10.865 19.1102 10.865 17.1573 12.8179C16.2074 13.7619 15.6882 15.0245 15.6882 16.3638C15.6882 17.7031 16.2074 18.9657 17.1573 19.9097C18.1367 20.8891 19.417 21.3788 20.7032 21.3788ZM18.827 14.4876C19.3462 13.9684 20.0247 13.7088 20.7032 13.7088C21.3817 13.7088 22.0602 13.9684 22.5794 14.4876C23.6119 15.5201 23.6119 17.2075 22.5794 18.24C21.541 19.2725 19.8595 19.2725 18.827 18.24C18.3255 17.7385 18.0482 17.0718 18.0482 16.3638C18.0482 15.6558 18.3255 14.9891 18.827 14.4876Z" fill="#2F73F2"/>
<path d="M26.7508 29.0902C24.7979 31.0431 24.7979 34.2291 26.7508 36.182C27.7302 37.1614 29.0105 37.6511 30.2967 37.6511C31.5829 37.6511 32.8632 37.1614 33.8426 36.182C34.7925 35.2321 35.3117 33.9754 35.3117 32.6361C35.3117 31.2968 34.7925 30.0342 33.8426 29.0902C31.8897 27.1314 28.7096 27.1314 26.7508 29.0902ZM32.1729 34.5123C31.1404 35.5448 29.453 35.5448 28.4205 34.5123C27.388 33.4798 27.388 31.7924 28.4205 30.7599C28.9397 30.2407 29.6182 29.9811 30.2967 29.9811C30.9752 29.9811 31.6537 30.2407 32.1729 30.7599C32.6744 31.2614 32.9517 31.9281 32.9517 32.6361C32.9517 33.3441 32.6744 34.0108 32.1729 34.5123Z" fill="#2F73F2"/>
</svg>
