<svg width="55" height="48" viewBox="0 0 55 48" fill="none" xmlns="http://www.w3.org/2000/svg">
<path fill-rule="evenodd" clip-rule="evenodd" d="M0.1875 5.91071C0.1875 2.84278 2.62886 0.3125 5.69318 0.3125H44.5568C47.6212 0.3125 50.0625 2.84278 50.0625 5.91071V18.125C50.0625 18.7807 49.5307 19.3125 48.875 19.3125C48.2193 19.3125 47.6875 18.7807 47.6875 18.125V5.91071C47.6875 4.10673 46.2623 2.6875 44.5568 2.6875H5.69318C3.98776 2.6875 2.5625 4.10673 2.5625 5.91071V27.9644C2.5625 29.7682 3.98776 31.1875 5.69318 31.1875H22.75C23.4057 31.1875 23.9375 31.7193 23.9375 32.375C23.9375 33.0307 23.4057 33.5625 22.75 33.5625H5.69318C2.62886 33.5625 0.1875 31.0322 0.1875 27.9644V5.91071Z" fill="#2F73F2"/>
<path fill-rule="evenodd" clip-rule="evenodd" d="M0.1875 8.625C0.1875 7.96917 0.719163 7.4375 1.375 7.4375H48.875C49.5307 7.4375 50.0625 7.96917 50.0625 8.625C50.0625 9.28083 49.5307 9.8125 48.875 9.8125H1.375C0.719163 9.8125 0.1875 9.28083 0.1875 8.625Z" fill="#2F73F2"/>
<path fill-rule="evenodd" clip-rule="evenodd" d="M4.9375 20.5C4.9375 19.8443 5.46917 19.3125 6.125 19.3125H10.875C11.5308 19.3125 12.0625 19.8443 12.0625 20.5C12.0625 21.1557 11.5308 21.6875 10.875 21.6875H6.125C5.46917 21.6875 4.9375 21.1557 4.9375 20.5Z" fill="#2F73F2"/>
<path fill-rule="evenodd" clip-rule="evenodd" d="M4.9375 26.4375C4.9375 25.7818 5.46917 25.25 6.125 25.25H15.625C16.2808 25.25 16.8125 25.7818 16.8125 26.4375C16.8125 27.0932 16.2808 27.625 15.625 27.625H6.125C5.46917 27.625 4.9375 27.0932 4.9375 26.4375Z" fill="#2F73F2"/>
<path fill-rule="evenodd" clip-rule="evenodd" d="M41.75 24.0625C35.8474 24.0625 31.0625 28.8474 31.0625 34.75C31.0625 40.6526 35.8474 45.4375 41.75 45.4375C47.6526 45.4375 52.4375 40.6526 52.4375 34.75C52.4375 28.8474 47.6526 24.0625 41.75 24.0625ZM28.6875 34.75C28.6875 27.5357 34.5357 21.6875 41.75 21.6875C48.9643 21.6875 54.8125 27.5357 54.8125 34.75C54.8125 41.9643 48.9643 47.8125 41.75 47.8125C34.5357 47.8125 28.6875 41.9643 28.6875 34.75Z" fill="#2F73F2"/>
<path fill-rule="evenodd" clip-rule="evenodd" d="M45.6602 32.7227C46.124 32.2591 46.876 32.2591 47.3398 32.7227C47.8034 33.1865 47.8034 33.9385 47.3398 34.4023L42.5898 39.1523C42.126 39.6159 41.374 39.6159 40.9102 39.1523L37.3477 35.5898C36.8841 35.126 36.8841 34.374 37.3477 33.9102C37.8115 33.4466 38.5635 33.4466 39.0273 33.9102L41.75 36.6331L45.6602 32.7227Z" fill="#2F73F2"/>
</svg>
