<svg width="60" height="50" viewBox="0 0 60 50" fill="none" xmlns="http://www.w3.org/2000/svg">
<path d="M59.9873 13.4462C59.9869 12.4202 59.5834 11.5154 58.8205 10.8299L49.7005 2.63188C48.5661 1.61247 47.1359 0.570557 45.1249 0.570557C45.1243 0.570557 45.1234 0.570557 45.1228 0.570557C43.1106 0.57126 41.6802 1.61458 40.5464 2.63517L31.4323 10.8393C30.6697 11.5256 30.267 12.4308 30.2673 13.4567L30.2715 23.986H24.2187C25.3141 21.7111 26.0771 18.1174 25.2203 15.4264C24.6172 13.5325 23.2891 12.284 21.3797 11.8158C21.1359 11.7559 20.8785 11.7964 20.6648 11.928C20.4512 12.0595 20.2992 12.2714 20.2429 12.5158C20.1389 12.9674 20.0427 13.3906 19.9523 13.7885C18.8263 18.7472 18.6816 19.3844 15.5713 21.4173C13.374 22.8534 13.218 23.0388 11.8515 25.0324C11.712 25.2361 11.558 25.4606 11.3856 25.71C10.8322 26.5104 10.1243 26.8713 9.09551 26.8803L9.01617 26.8806V26.656C9.01617 25.4884 8.06625 24.5384 6.89848 24.5384H2.11758C0.949922 24.5384 0 25.4884 0 26.656V47.3119C0 48.4796 0.949922 49.4295 2.11758 49.4295H6.89859C8.06625 49.4295 9.01629 48.4796 9.01629 47.3119V46.3509C9.43887 46.4983 9.86133 46.6556 10.2963 46.818C12.4262 47.6135 14.8402 48.5151 18.4243 48.5151H30.8692C31.3997 48.5151 31.9045 48.4044 32.3629 48.2058C32.8129 48.4081 33.3004 48.5151 33.8002 48.5151H33.801L56.4814 48.5073C58.4223 48.5065 60.0007 46.9269 59.9999 44.986L59.9873 13.4462ZM7.14129 47.3119C7.14129 47.4435 7.0302 47.5545 6.89859 47.5545H2.11758C1.98609 47.5545 1.875 47.4435 1.875 47.3119V26.656C1.875 26.5245 1.98609 26.4134 2.11758 26.4134H6.89859C7.0302 26.4134 7.14129 26.5245 7.14129 26.656V47.3119ZM18.4243 46.6401C15.1789 46.6401 13.0303 45.8375 10.9525 45.0615C10.3252 44.8272 9.68191 44.587 9.01641 44.3726V28.7556L9.10676 28.7553C10.7445 28.741 12.0302 28.0751 12.9281 26.776C13.102 26.5245 13.2573 26.298 13.3982 26.0925C14.6584 24.2539 14.6584 24.2539 16.5973 22.9867C20.3422 20.539 20.6183 19.3227 21.7808 14.2037C21.798 14.1277 21.8155 14.0506 21.8332 13.9727C22.6058 14.3829 23.133 15.0511 23.4338 15.9952C24.3183 18.7731 22.9234 23.0496 21.832 24.3097C21.5918 24.5871 21.5355 24.9792 21.688 25.3131C21.8406 25.6469 22.1737 25.861 22.5408 25.861H33.2588C34.3032 25.861 35.153 26.7108 35.153 27.7552C35.153 28.7997 34.3032 29.6496 33.2588 29.6496H25.8695C25.3518 29.6496 24.932 30.0693 24.932 30.5871C24.932 31.1048 25.3518 31.5246 25.8695 31.5246H34.8073C35.8518 31.5246 36.7015 32.3743 36.7015 33.4188C36.7015 34.4633 35.8518 35.3131 34.8073 35.3131H25.8695C25.3518 35.3131 24.932 35.7329 24.932 36.2506C24.932 36.7684 25.3518 37.1881 25.8695 37.1881H33.8339C34.8784 37.1881 35.7281 38.0379 35.7281 39.0824C35.7281 40.1269 34.8784 40.9766 33.8339 40.9766H25.8695C25.3518 40.9766 24.932 41.3963 24.932 41.9141C24.932 42.4318 25.3518 42.8516 25.8695 42.8516H30.8693C31.9138 42.8516 32.7636 43.7014 32.7636 44.7459C32.7636 45.7904 31.9139 46.6401 30.8693 46.6401H18.4243ZM56.4807 46.6323L34.1259 46.64C34.4511 46.083 34.6385 45.4361 34.6385 44.7459C34.6385 44.0513 34.4497 43.4001 34.1208 42.8408C36.0656 42.6936 37.6031 41.0641 37.6031 39.0824C37.6031 38.1628 37.2721 37.319 36.7229 36.6641C37.8315 36.0071 38.5765 34.7982 38.5765 33.4188C38.5765 31.8751 37.6436 30.5452 36.3121 29.9631C36.7623 29.3421 37.028 28.5792 37.028 27.7552C37.028 25.6769 35.3371 23.986 33.2588 23.986H32.1466L32.1424 13.4561C32.1423 12.963 32.3203 12.5629 32.6868 12.2331L41.8009 4.02876C43.0498 2.90458 44.0125 2.44603 45.1236 2.44556H45.125C46.2353 2.44556 47.1981 2.90364 48.4473 4.0263L57.5673 12.2243C57.934 12.5539 58.1123 12.9539 58.1126 13.447L58.125 44.9867C58.1254 45.8938 57.3878 46.6319 56.4807 46.6323ZM50.7554 33.9452C50.8928 35.0767 50.5895 36.1093 49.8785 36.9314C49.0423 37.8982 47.6527 38.5463 46.0712 38.7282V39.9207C46.0712 40.4384 45.6514 40.8582 45.1337 40.8582C44.616 40.8582 44.1962 40.4384 44.1962 39.9207V38.7146C41.8543 38.3928 40.0339 36.912 39.507 34.7982C39.3817 34.2958 39.6874 33.787 40.1898 33.6617C40.6925 33.5373 41.201 33.8423 41.3263 34.3446C41.8119 36.2921 43.7718 36.9419 45.3034 36.9037C46.6185 36.8724 47.8576 36.4019 48.4604 35.7049C48.8263 35.282 48.9682 34.7802 48.8943 34.1711C48.7193 32.7297 47.5168 31.9024 44.9953 31.4884C40.9823 30.8294 40.0479 28.7942 39.9708 27.2031C39.8637 24.9982 41.4073 23.1501 43.8118 22.6047C43.9379 22.5763 44.0662 22.5515 44.1964 22.531V21.3117C44.1964 20.794 44.6162 20.3742 45.1339 20.3742C45.6517 20.3742 46.0714 20.794 46.0714 21.3117V22.5231C47.7879 22.7772 49.4811 23.7716 50.3271 25.7866C50.5275 26.2639 50.3031 26.8135 49.8257 27.0139C49.3481 27.2145 48.7987 26.9899 48.5984 26.5125C47.7852 24.5758 45.8168 24.0729 44.2266 24.4336C43.0249 24.706 41.7679 25.5529 41.8437 27.1124C41.8673 27.6007 41.9394 29.0867 45.2992 29.6383C46.5439 29.8425 50.333 30.4646 50.7554 33.9452ZM45.126 13.1416C46.9669 13.1416 48.4646 11.644 48.4646 9.80294C48.4646 7.96193 46.967 6.46427 45.126 6.46427C43.285 6.46427 41.7872 7.96193 41.7872 9.80294C41.7872 11.644 43.285 13.1416 45.126 13.1416ZM45.126 8.33915C45.933 8.33915 46.5896 8.99587 46.5896 9.80282C46.5896 10.6098 45.933 11.2665 45.126 11.2665C44.3189 11.2665 43.6622 10.6098 43.6622 9.80282C43.6622 8.99587 44.3189 8.33915 45.126 8.33915Z" fill="#2F73F2"/>
</svg>
