<svg width="26" height="26" viewBox="0 0 26 26" fill="none" xmlns="http://www.w3.org/2000/svg">
<g clip-path="url(#clip0_1_254)">
<path d="M10.4642 20.9198C12.7881 20.9199 15.0455 20.1445 16.8789 18.7165L23.7958 25.6334C24.3125 26.1324 25.1358 26.1181 25.6349 25.6014C26.1217 25.0973 26.1217 24.2983 25.6349 23.7943L18.718 16.8774C22.2615 12.316 21.4364 5.74572 16.8749 2.20224C12.3135 -1.34125 5.74328 -0.516091 2.1998 4.04533C-1.34369 8.60675 -0.518533 15.1771 4.04289 18.7205C5.87927 20.1471 8.13874 20.921 10.4642 20.9198ZM4.90658 4.90502C7.97599 1.83555 12.9525 1.83549 16.022 4.9049C19.0914 7.97432 19.0915 12.9508 16.0221 16.0203C12.9527 19.0898 7.97616 19.0898 4.90669 16.0204C4.90663 16.0203 4.90663 16.0203 4.90658 16.0203C1.83716 12.9732 1.81908 8.01488 4.86613 4.94547C4.87959 4.93194 4.89305 4.91848 4.90658 4.90502Z" fill="#2F73F2"/>
</g>
<defs>
<clipPath id="clip0_1_254">
<rect width="26" height="26" fill="white"/>
</clipPath>
</defs>
</svg>
